<svg width="190" height="96" viewBox="0 0 190 96" fill="none" xmlns="http://www.w3.org/2000/svg">
<path d="M0 2.54836H29.9433L35.3586 35.1993V93.3338H5.73382V32.8102L0 2.54836ZM78.6807 1.27419V26.7578C75.8138 26.1207 72.9469 25.6429 70.08 25.3244C67.3193 25.0058 64.7709 24.8466 62.4349 24.8466C57.3382 24.8466 52.7193 25.9084 48.5782 28.032C44.5433 30.0495 41.3047 33.288 38.8625 37.7476C36.5265 42.2073 35.3586 47.9942 35.3586 55.1084L29.4655 47.7818C30.2087 41.3047 31.4298 35.1993 33.1287 29.4655C34.8276 23.7316 37.1636 18.688 40.1367 14.3346C43.1098 9.87491 46.7731 6.37091 51.1265 3.82255C55.5862 1.27418 60.9484 0 67.2131 0C69.0182 0 70.9295 0.106187 72.9469 0.318548C74.9644 0.530915 76.8756 0.849463 78.6807 1.27419Z" fill="#1C1C1C"/>
<path d="M140.063 95.8822C129.233 95.8822 119.517 93.8647 110.916 89.8298C102.422 85.7949 95.7322 80.1673 90.8478 72.9469C85.9634 65.7266 83.5212 57.2851 83.5212 47.6226C83.5212 38.1724 85.8572 29.8902 90.5292 22.776C95.2012 15.6618 101.625 10.0873 109.801 6.05237C118.083 2.01746 127.427 0 137.833 0C148.451 0 157.583 2.336 165.228 7.008C172.873 11.68 178.766 18.2633 182.907 26.7578C187.049 35.2524 189.119 45.2335 189.119 56.7011H107.253V38.0662H172.873L162.202 44.7556C161.883 39.7651 160.662 35.5709 158.539 32.1731C156.521 28.6691 153.814 26.0146 150.416 24.2095C147.018 22.2982 142.983 21.3426 138.311 21.3426C133.214 21.3426 128.808 22.3513 125.091 24.3687C121.375 26.3862 118.455 29.2 116.331 32.8102C114.314 36.4204 113.305 40.6145 113.305 45.3927C113.305 51.4451 114.633 56.5949 117.287 60.8422C120.048 65.0895 123.977 68.328 129.073 70.5578C134.276 72.7877 140.594 73.9026 148.027 73.9026C154.822 73.9026 161.618 73 168.414 71.1949C175.209 69.2836 181.315 66.6291 186.73 63.2313V82.5033C180.571 86.7506 173.51 90.0422 165.547 92.3782C157.689 94.7142 149.195 95.8822 140.063 95.8822Z" fill="#1C1C1C"/>
</svg>
