<svg xmlns="http://www.w3.org/2000/svg">

  <symbol id="close" width="8" height="8" viewBox="0 0 8 8">
    <path
      d="M6.29817 7.35869C6.59106 7.65159 7.06594 7.65159 7.35883 7.35869C7.65172 7.0658 7.65172 6.59093 7.35883 6.29803L5.06079 3.99999L7.35882 1.70197C7.65171 1.40908 7.65171 0.934204 7.35882 0.64131C7.06592 0.348417 6.59105 0.348417 6.29816 0.64131L4.00013 2.93933L1.70198 0.641179C1.40908 0.348285 0.934209 0.348286 0.641316 0.641179C0.348422 0.934072 0.348422 1.40895 0.641316 1.70184L2.93947 3.99999L0.641301 6.29816C0.348408 6.59106 0.348408 7.06593 0.641301 7.35882C0.934194 7.65172 1.40907 7.65172 1.70196 7.35882L4.00013 5.06065L6.29817 7.35869Z" />
  </symbol>

  <symbol
    id="user"
    width="16"
    height="20"
    viewBox="0 0 16 20"
  >
    <path
      d="M8 1.85002C6.2603 1.85002 4.85 3.26033 4.85 5.00002C4.85 6.73972 6.2603 8.15002 8 8.15002C9.7397 8.15002 11.15 6.73972 11.15 5.00002C11.15 3.26033 9.7397 1.85002 8 1.85002ZM3.15 5.00002C3.15 2.32144 5.32142 0.150024 8 0.150024C10.6786 0.150024 12.85 2.32144 12.85 5.00002C12.85 7.67861 10.6786 9.85003 8 9.85003C5.32142 9.85003 3.15 7.67861 3.15 5.00002ZM3.43038 13.7854C2.25399 14.3736 1.85 15.0289 1.85 15.5C1.85 15.9711 2.25399 16.6264 3.43038 17.2146C4.55593 17.7774 6.17035 18.15 8 18.15C9.82965 18.15 11.4441 17.7774 12.5696 17.2146C13.746 16.6264 14.15 15.9711 14.15 15.5C14.15 15.0289 13.746 14.3736 12.5696 13.7854C11.4441 13.2226 9.82965 12.85 8 12.85C6.17035 12.85 4.55593 13.2226 3.43038 13.7854ZM2.67012 12.2649C4.07807 11.5609 5.96366 11.15 8 11.15C10.0363 11.15 11.9219 11.5609 13.3299 12.2649C14.687 12.9434 15.85 14.0381 15.85 15.5C15.85 16.9619 14.687 18.0566 13.3299 18.7352C11.9219 19.4391 10.0363 19.85 8 19.85C5.96366 19.85 4.07807 19.4391 2.67012 18.7352C1.31301 18.0566 0.15 16.9619 0.15 15.5C0.15 14.0381 1.31301 12.9434 2.67012 12.2649Z"
    />
  </symbol>

  <symbol id="cart" width="18" height="18" viewBox="0 0 18 18">
    <path
      d="M17.0343 3.05767C16.8234 2.80451 16.5593 2.6009 16.2607 2.4613C15.9622 2.3217 15.6367 2.24954 15.3071 2.24994H3.18142L3.14992 1.9867C3.08546 1.43953 2.82247 0.935026 2.41081 0.568844C1.99915 0.202662 1.46743 0.000256339 0.916477 0L0.749981 0C0.551074 0 0.360313 0.0790157 0.219664 0.219664C0.0790157 0.360313 0 0.551074 0 0.749981C0 0.948889 0.0790157 1.13965 0.219664 1.2803C0.360313 1.42095 0.551074 1.49996 0.749981 1.49996H0.916477C1.10017 1.49999 1.27747 1.56743 1.41474 1.68949C1.55202 1.81156 1.63972 1.97976 1.66121 2.1622L2.69318 10.937C2.80032 11.8495 3.23878 12.691 3.92533 13.3017C4.61189 13.9123 5.49875 14.2497 6.41759 14.2496H14.2496C14.4485 14.2496 14.6393 14.1706 14.78 14.03C14.9206 13.8893 14.9996 13.6986 14.9996 13.4997C14.9996 13.3008 14.9206 13.11 14.78 12.9693C14.6393 12.8287 14.4485 12.7497 14.2496 12.7497H6.41759C5.95339 12.7484 5.50096 12.6035 5.12232 12.335C4.74368 12.0664 4.45737 11.6874 4.30264 11.2497H13.2424C14.1216 11.2498 14.9729 10.9409 15.6475 10.3771C16.3221 9.81324 16.7771 9.0303 16.9331 8.16504L17.5218 4.89963C17.5806 4.57564 17.5674 4.24269 17.4831 3.92438C17.3989 3.60607 17.2457 3.31017 17.0343 3.05767ZM16.0496 4.63338L15.4601 7.8988C15.3665 8.41854 15.093 8.88877 14.6875 9.22717C14.2821 9.56556 13.7705 9.75056 13.2424 9.74975H4.06415L3.35842 3.74991H15.3071C15.4173 3.74925 15.5263 3.77287 15.6263 3.8191C15.7263 3.86532 15.8149 3.93301 15.8857 4.01735C15.9566 4.1017 16.0081 4.20062 16.0364 4.30709C16.0647 4.41357 16.0692 4.52497 16.0496 4.63338Z"
    />
    <path
      d="M5.24996 18C6.07836 18 6.74992 17.3284 6.74992 16.5C6.74992 15.6716 6.07836 15.0001 5.24996 15.0001C4.42155 15.0001 3.75 15.6716 3.75 16.5C3.75 17.3284 4.42155 18 5.24996 18Z"
    />
    <path
      d="M12.7497 18C13.5781 18 14.2496 17.3284 14.2496 16.5C14.2496 15.6716 13.5781 15.0001 12.7497 15.0001C11.9213 15.0001 11.2497 15.6716 11.2497 16.5C11.2497 17.3284 11.9213 18 12.7497 18Z"
    />
  </symbol>

  <symbol id="vegetarian" width="16" height="16" viewBox="0 0 16 16">
    <path
      d="M16 1C16 4.55 13.3562 7.48438 9.93125 7.9375C9.70937 6.26875 8.975 4.7625 7.89062 3.58437C9.0875 1.44687 11.375 0 14 0H15C15.5531 0 16 0.446875 16 1ZM0 3C0 2.44688 0.446875 2 1 2H2C5.86562 2 9 5.13438 9 9V10V15C9 15.5531 8.55313 16 8 16C7.44688 16 7 15.5531 7 15V10C3.13438 10 0 6.86562 0 3Z"
    />
  </symbol>

  <symbol id="pepper" width="16" height="16" viewBox="0 0 16 16">
    <path
      d="M10.3336 8.22218V5.41831L8.68512 4.6614C6.85754 6.83587 6.17439 12.4999 1.74983 12.4999C1.28568 12.4999 0.840543 12.6842 0.51234 13.0124C0.184138 13.3406 -0.000244141 13.7858 -0.000244141 14.2499C-0.000244141 14.7141 0.184138 15.1592 0.51234 15.4874C0.840543 15.8156 1.28568 16 1.74983 16C8.39511 16 13.3331 12.1602 14.8497 9.4266L13.6919 8.22218H10.3336ZM14.4304 4.21045C15.4354 2.34037 14.9123 0.82687 14.3322 0.0930895C14.3101 0.0656475 14.2824 0.0431944 14.251 0.0272037C14.2196 0.0112131 14.1852 0.00204638 14.1499 0.000305197C14.1147 -0.00143599 14.0796 0.00428771 14.0467 0.0171007C14.0139 0.0299136 13.9841 0.0495262 13.9594 0.0746512L13.2437 0.793431C13.2027 0.835175 13.1774 0.889931 13.1723 0.948279C13.1673 1.00663 13.1827 1.06492 13.2159 1.11313C13.4303 1.4369 13.7488 2.21005 13.1722 3.37323C12.6088 3.12696 12.0007 2.99971 11.3859 2.99946C10.5108 2.99946 9.69828 3.26635 9.00013 3.70543L11.3337 4.77703V7.22214H14.1178L15.8267 8.99971C15.9285 8.60532 16.0004 8.19874 16.0004 7.77122C16.001 7.1011 15.8617 6.43823 15.5913 5.82506C15.321 5.2119 14.9255 4.66196 14.4304 4.21045Z" />
  </symbol>

  <symbol id="fish" width="16" height="16" viewBox="0 0 16 16">
    <path
      d="M7.3282 3.51173C5.48673 3.65016 3.70986 4.25047 2.16175 5.2572C2.36418 4.45053 2.79292 3.71851 3.39747 3.14736C4.00203 2.57621 4.75721 2.18972 5.57407 2.03341C5.79022 1.98993 6.0134 1.99577 6.22698 2.05051C6.44056 2.10524 6.63904 2.20746 6.80764 2.34955C6.97624 2.49164 7.1106 2.66993 7.20073 2.87115C7.29086 3.07237 7.33443 3.29133 7.3282 3.51173ZM15.7584 3.49641C15.5164 3.16533 15.2095 2.88706 14.8563 2.67859C14.5032 2.47012 14.1113 2.33582 13.7045 2.2839C13.6526 1.87712 13.5183 1.48519 13.3098 1.13205C13.1013 0.77891 12.8231 0.471972 12.492 0.229983C12.3222 0.10221 12.1202 0.0242299 11.9086 0.00477623C11.697 -0.0146775 11.4841 0.0251633 11.2939 0.119836C11.1036 0.21451 10.9435 0.360277 10.8314 0.540812C10.7193 0.721348 10.6597 0.929523 10.6592 1.14202V4.66294C5.65135 4.66294 2.79398 5.62028 1.30767 8.12323C2.88488 8.53522 4.32366 9.36046 5.47563 10.5138C6.62761 11.6672 7.45109 13.107 7.86117 14.6847C10.3668 13.1991 11.3255 10.341 11.3255 5.32915L14.8464 5.32915C15.0589 5.32868 15.267 5.26907 15.4476 5.15698C15.6281 5.0449 15.7739 4.88477 15.8686 4.69452C15.9632 4.50428 16.0031 4.29143 15.9836 4.07982C15.9642 3.86821 15.8862 3.6662 15.7584 3.49641ZM12.7911 8.66019H12.4747C12.3742 9.56288 12.1929 10.4547 11.933 11.325H12.4753C14.1322 11.3763 14.6645 8.7428 12.7911 8.66019ZM6.62934 15.263C5.03044 15.7213 2.27434 16.6907 0.78003 15.2084C0.511679 14.9408 0.303742 14.6189 0.17021 14.2643C0.0366791 13.9096 -0.0193493 13.5305 0.00589515 13.1524C0.0676905 11.8593 0.310097 10.5811 0.726067 9.35505C2.16831 9.68015 3.48867 10.4079 4.53367 11.4537C5.57867 12.4996 6.30538 13.8205 6.62934 15.263ZM3.33094 13.3237C3.33094 13.147 3.26075 12.9775 3.13582 12.8526C3.01088 12.7276 2.84142 12.6574 2.66474 12.6574C2.48805 12.6574 2.31859 12.7276 2.19365 12.8526C2.06872 12.9775 1.99853 13.147 1.99853 13.3237C1.99853 13.5003 2.06872 13.6698 2.19365 13.7947C2.31859 13.9197 2.48805 13.9899 2.66474 13.9899C2.84142 13.9899 3.01088 13.9197 3.13582 13.7947C3.26075 13.6698 3.33094 13.5003 3.33094 13.3237Z"
    />
  </symbol>

  <symbol id="telegram" width="18" height="15" viewBox="0 0 18 15">
    <path
      d="M16.4654 0.132424C16.4654 0.132424 18.1306 -0.516862 17.9918 1.05998C17.9455 1.70927 17.5293 3.98177 17.2055 6.4398L16.0954 13.7211C16.0954 13.7211 16.0029 14.7878 15.1703 14.9733C14.3377 15.1588 13.0889 14.324 12.8576 14.1385C12.6726 13.9994 9.38863 11.9124 8.23226 10.8921C7.90848 10.6138 7.53845 10.0572 8.27851 9.40796L13.1352 4.77022C13.6902 4.21367 14.2453 2.9151 11.9326 4.49195L5.45705 8.89783C5.45705 8.89783 4.71699 9.36159 3.3294 8.94421L0.322895 8.01665C0.322895 8.01665 -0.787196 7.32099 1.10921 6.62529C5.73459 4.44553 11.4238 2.2194 16.4654 0.132424Z"
    />
  </symbol>

  <symbol id="vk" width="20" height="12" viewBox="0 0 20 12">
    <path
      d="M12.1106 5.59545C11.7449 5.45794 11.7449 4.93278 11.7222 4.56707C11.6308 3.26442 12.0879 1.27569 11.5394 0.430166C11.151 -0.0730509 9.27636 -0.0269716 8.13388 0.0417819C7.81352 0.0878613 7.42513 0.155884 7.15085 0.293391C6.87657 0.430898 6.60229 0.6591 6.60229 0.864629C6.60229 1.16159 7.28836 1.11624 7.53924 1.50462C7.81352 1.91641 7.81352 2.80728 7.81352 3.5387C7.81352 4.38422 7.67601 5.50475 7.33371 5.5501C6.80782 5.57278 6.51086 5.04689 6.23658 4.6585C5.68801 3.90441 5.13945 2.96673 4.72766 2.05245C4.52213 1.57264 4.4073 1.04675 4.11034 0.841224C3.6532 0.520862 2.83036 0.498188 2.03018 0.520862C1.29876 0.543536 0.246983 0.452109 0.0414545 0.886572C-0.118726 1.36638 0.224309 1.82352 0.407164 2.21264C1.34411 4.24671 2.34981 6.02991 3.58445 7.72096C4.72766 9.2979 5.80138 10.5552 7.90421 11.2179C8.49886 11.4007 11.1042 11.9266 11.6301 11.2179C11.8129 10.9436 11.7676 10.3263 11.859 9.86913C11.9504 9.412 12.0645 8.95486 12.499 8.93219C12.8647 8.90951 13.0702 9.22914 13.2992 9.45808C13.5508 9.70969 13.7563 9.91521 13.9392 10.1441C14.3736 10.5786 14.8308 11.1725 15.3793 11.4015C16.1334 11.7218 17.2993 11.6304 18.3964 11.5843C19.288 11.5616 19.928 11.3788 19.9968 10.8529C20.0429 10.4411 19.585 9.84719 19.3107 9.50416C18.6246 8.65864 18.305 8.40703 17.5275 7.62953C17.1845 7.28649 16.75 6.92078 16.75 6.50972C16.7273 6.25812 16.9329 6.02991 17.1157 5.77831C17.9159 4.58975 18.7161 3.74423 19.4475 2.50959C19.653 2.14388 20.1335 1.29836 19.9507 0.886572C19.7452 0.429435 18.602 0.56621 17.8932 0.56621C16.9789 0.56621 15.7904 0.497456 15.5614 0.680311C15.127 0.977268 14.9441 1.45781 14.7386 1.91495C14.2815 2.96673 13.6641 4.04045 13.0241 4.84063C12.7952 5.11491 12.3615 5.68615 12.1099 5.59472L12.1106 5.59545Z"
    />
  </symbol>

  <svg id="whatsapp" width="19" height="20" viewBox="0 0 19 20">
    <path
      d="M9.375 0C4.1875 0 0 4.1875 0 9.375C0 11.5 0.6875 13.5 2 15.125L0.6875 19.125C0.625 19.375 0.6875 19.625 0.875 19.8125C0.9375 19.9375 1.125 20 1.25 20C1.3125 20 1.4375 20 1.5 19.9375L5.8125 18C6.9375 18.5 8.125 18.75 9.375 18.75C14.5625 18.75 18.75 14.5625 18.75 9.375C18.75 4.1875 14.5625 0 9.375 0ZM14.8125 12.8125C14.5625 13.5625 13.625 14.1875 12.8125 14.3125C12.625 14.375 12.4375 14.375 12.1875 14.375C11.6875 14.375 10.9375 14.25 9.625 13.6875C8.125 13.0625 6.625 11.75 5.4375 10.0625V10C5.0625 9.4375 4.375 8.375 4.375 7.25C4.375 5.875 5.0625 5.1875 5.3125 4.875C5.625 4.5625 6.0625 4.375 6.5625 4.375C6.6875 4.375 6.75 4.375 6.875 4.375C7.3125 4.375 7.625 4.5 7.9375 5.125L8.1875 5.625C8.375 6.125 8.625 6.6875 8.6875 6.75C8.875 7.125 8.875 7.4375 8.6875 7.75C8.625 7.9375 8.5 8.0625 8.375 8.1875C8.3125 8.3125 8.25 8.375 8.1875 8.375C8.125 8.4375 8.125 8.4375 8.0625 8.5C8.25 8.8125 8.625 9.375 9.125 9.8125C9.875 10.5 10.4375 10.6875 10.75 10.8125C10.875 10.6875 11 10.4375 11.1875 10.25L11.25 10.125C11.5625 9.6875 12.0625 9.5625 12.5625 9.75C12.8125 9.875 14.1875 10.5 14.1875 10.5L14.3125 10.5625C14.5 10.6875 14.75 10.75 14.875 11C15.125 11.5625 14.9375 12.375 14.8125 12.8125Z"
    />
  </svg>

  <symbol id="visa" width="32" height="12" viewBox="0 0 32 12">
    <path
      d="M15.8442 0.858161L13.7071 11.1757H11.1208L13.2611 0.858161H15.8442ZM26.7239 7.51987L28.0843 3.64489L28.8685 7.51987H26.7239ZM29.6079 11.1757H32L29.913 0.858161H27.7055C27.7023 0.858161 27.6981 0.858161 27.6949 0.858161C27.2051 0.858161 26.7847 1.16767 26.6076 1.60716L26.6044 1.61487L22.7261 11.1757H25.4404L25.9803 9.6336H29.2974L29.6079 11.1757ZM22.8594 7.80735C22.8701 5.08341 19.2115 4.93361 19.2371 3.71648C19.2457 3.34639 19.586 2.95206 20.3329 2.85183C20.4716 2.83751 20.6316 2.8287 20.7938 2.8287C21.5524 2.8287 22.2715 3.00713 22.9117 3.32656L22.8829 3.31334L23.3364 1.12472C22.6183 0.837233 21.7871 0.669808 20.9186 0.666504H20.9176C18.3612 0.666504 16.5634 2.07088 16.5473 4.07887C16.5313 5.56365 17.8309 6.39086 18.8114 6.88652C19.8197 7.3921 20.1579 7.71703 20.1526 8.16754C20.1462 8.86146 19.3502 9.16547 18.6055 9.17759C18.5714 9.17869 18.5297 9.17869 18.4892 9.17869C17.5599 9.17869 16.685 8.93747 15.921 8.5112L15.9499 8.52552L15.4815 10.7857C16.3201 11.1327 17.2921 11.3332 18.3099 11.3332C18.326 11.3332 18.342 11.3332 18.358 11.3332H18.3558C21.0723 11.3332 22.8488 9.94862 22.8584 7.80405L22.8594 7.80735ZM12.1494 0.858161L7.96052 11.1757H5.22699L3.16564 2.93994C3.12617 2.53901 2.88824 2.20416 2.55748 2.03674L2.55108 2.03343C1.81702 1.66113 0.963457 1.35823 0.0704189 1.16767L0 1.15556L0.0618833 0.857059H4.46199C5.06162 0.857059 5.55988 1.30976 5.65271 1.90126L5.65377 1.90786L6.74313 7.87895L9.43398 0.855957L12.1494 0.858161Z"
    />
  </symbol>
  <symbol id="masterCard" width="22" height="15" viewBox="0 0 22 15">
    <path
      d="M11.1187 2.34098C11.9127 2.95451 12.5546 3.7378 12.9956 4.63158C13.4367 5.52536 13.6655 6.50619 13.6646 7.49985C13.6652 8.49318 13.4363 9.47363 12.9952 10.3671C12.5542 11.2605 11.9125 12.0435 11.1187 12.6568C10.3248 12.0434 9.68305 11.2602 9.24199 10.3666C8.80093 9.47302 8.57211 8.49237 8.57287 7.49888C8.57211 6.50539 8.80093 5.52475 9.24199 4.63115C9.68305 3.73755 10.3248 2.95441 11.1187 2.34098ZM10.2655 1.77914C9.42503 2.48537 8.75035 3.36283 8.2881 4.35088C7.82586 5.33892 7.58708 6.41399 7.58826 7.50178C7.58712 8.58909 7.82573 9.66369 8.28762 10.6514C8.74951 11.6391 9.42368 12.5163 10.2636 13.2225C9.24893 13.7832 8.1029 14.0727 6.93938 14.0622C5.77587 14.0518 4.63539 13.7418 3.63131 13.163C2.62724 12.5842 1.79454 11.7568 1.216 10.763C0.63745 9.76924 0.333202 8.64372 0.333496 7.49834C0.333791 6.35295 0.638618 5.22759 1.21768 4.23412C1.79673 3.24064 2.62986 2.41365 3.63423 1.83536C4.6386 1.25707 5.77924 0.947606 6.94276 0.937743C8.10628 0.927881 9.25118 1.21796 10.2655 1.77914ZM11.9739 13.2225C12.8137 12.5163 13.4879 11.6391 13.9498 10.6514C14.4117 9.66369 14.6503 8.58909 14.6492 7.50178C14.6503 6.41399 14.4116 5.33892 13.9493 4.35088C13.4871 3.36283 12.8124 2.48537 11.9719 1.77914C12.9862 1.21796 14.1321 0.927881 15.2956 0.937743C16.4592 0.947606 17.5998 1.25707 18.6042 1.83536C19.6085 2.41365 20.4417 3.24064 21.0207 4.23412C21.5998 5.22759 21.9046 6.35295 21.9049 7.49834C21.9052 8.64372 21.601 9.76924 21.0224 10.763C20.4439 11.7568 19.6112 12.5842 18.6071 13.163C17.603 13.7418 16.4625 14.0518 15.299 14.0622C14.1355 14.0727 12.9895 13.7832 11.9748 13.2225H11.9739Z"
    />
  </symbol>
  <symbol id="mir" width="32" height="10" viewBox="0 0 32 10">
    <path
      d="M23.0861 4.40332V9.43757H25.8459V6.45431H28.9737C30.2892 6.44499 31.4069 5.59196 31.8301 4.40332H23.0861Z"
    />
    <path
      d="M22.7181 0.254639C22.8791 2.31029 24.8017 3.9371 27.1476 3.9371C27.1568 3.9371 31.945 3.9371 31.945 3.9371C31.9818 3.75064 32.0002 3.55487 32.0002 3.35443C32.0002 1.64838 30.6433 0.268623 28.9645 0.254639H22.7181Z"
    />
    <path
      d="M18.6332 3.88582C18.6654 3.82989 18.716 3.79726 18.7804 3.79726C18.8724 3.79726 18.9414 3.87184 18.946 3.9604V9.39086H21.7058V0.254639H18.946C18.5964 0.268623 18.2009 0.524996 18.0537 0.846629L15.8596 5.61984C15.855 5.63849 15.8458 5.65713 15.8366 5.67578C15.8044 5.72239 15.7492 5.75502 15.6848 5.75502C15.5836 5.75502 15.5008 5.67111 15.5008 5.56856V0.254639H12.741V9.39086H15.5008C15.8458 9.37222 16.2322 9.11584 16.3794 8.79887L18.6332 3.89981C18.6286 3.89514 18.6332 3.89048 18.6332 3.88582Z"
    />
    <path
      d="M8.33003 4.04433L6.71554 9.39088H4.72848L3.11859 4.03967C3.10479 3.95576 3.03119 3.89051 2.9392 3.89051C2.838 3.89051 2.75981 3.97441 2.75981 4.0723V9.38622H0V0.25H2.36884H3.07259C3.57855 0.25 4.11212 0.650875 4.25931 1.14032L5.60242 5.59189C5.67141 5.81564 5.7772 5.81098 5.8462 5.59189L7.18931 1.14032C7.3365 0.646214 7.87006 0.25 8.37602 0.25H9.07978H11.4486V9.38622H8.6888V4.0723C8.6888 4.0723 8.6888 4.0723 8.6888 4.06764C8.6888 3.96509 8.60601 3.88584 8.50941 3.88584C8.41742 3.89051 8.34383 3.95576 8.33003 4.04433Z"
    />
  </symbol>
</svg>